<svg version="1.1" xmlns="http://www.w3.org/2000/svg" xmlns:xlink="http://www.w3.org/1999/xlink" width="95.64443" height="57.33347" viewBox="0,0,95.64443,57.33347"><g transform="translate(-194.60481,-151.38811)"><g data-paper-data="{&quot;isPaintingLayer&quot;:true}" fill-rule="nonzero" stroke="none" stroke-width="0" stroke-linecap="butt" stroke-linejoin="miter" stroke-miterlimit="10" stroke-dasharray="" stroke-dashoffset="0" style="mix-blend-mode: normal"><path d="M205.60481,189.22157v-4.75h7.25v4.75z" fill="#999999"/><path d="M200.22981,186.47157v-4h12.5v4z" fill="#999999"/><path d="M197.60481,184.47157v-7.5h5.25v7.5z" fill="#999999"/><path d="M194.60482,183.34657v-5.75h3.125v5.75z" fill="#000000"/><path d="M197.35482,177.59657v-3h5.375v3z" fill="#000000"/><path d="M202.72982,183.34657v-5.75h3v5.75z" fill="#000000"/><path d="M202.72982,183.34657v-3.375h11v3.375z" fill="#000000"/><path d="M206.10482,191.72157v-2.75h8.375v2.75z" fill="#000000"/><path d="M200.10482,188.97157v-3h6.125v3z" fill="#000000"/><path d="M197.47982,186.22157v-3.125h2.75v3.125z" fill="#000000"/><path d="M194.60482,183.34657v-5.875h3v5.875z" fill="#000000"/><path d="M254.17387,206.50786v-4.55556h6.22222v4.55556z" data-paper-data="{&quot;index&quot;:null}" fill="#999999"/><path d="M260.17386,208.28564v-8.11111h2.44445v8.11111z" data-paper-data="{&quot;index&quot;:null}" fill="#000000"/><path d="M254.17386,208.61898v-2.44445h8.44445v2.44445z" data-paper-data="{&quot;index&quot;:null}" fill="#000000"/><path d="M251.3961,206.17452v-6.11111h2.66666v6.11111z" data-paper-data="{&quot;index&quot;:null}" fill="#000000"/><path d="M268.29887,206.50786v-4.55556h6.22222v4.55556z" data-paper-data="{&quot;index&quot;:null}" fill="#999999"/><path d="M274.29886,208.28564v-8.11111h2.44445v8.11111z" data-paper-data="{&quot;index&quot;:null}" fill="#000000"/><path d="M268.29886,208.61898v-2.44445h8.44445v2.44445z" data-paper-data="{&quot;index&quot;:null}" fill="#000000"/><path d="M265.5211,206.17452v-6.11111h2.66666v6.11111z" data-paper-data="{&quot;index&quot;:null}" fill="#000000"/><path d="M225.79887,206.50786v-4.55556h6.22222v4.55556z" data-paper-data="{&quot;index&quot;:null}" fill="#999999"/><path d="M231.79886,208.28564v-8.11111h2.44445v8.11111z" data-paper-data="{&quot;index&quot;:null}" fill="#000000"/><path d="M225.79886,208.61898v-2.44445h8.44445v2.44445z" data-paper-data="{&quot;index&quot;:null}" fill="#000000"/><path d="M223.0211,206.17452v-6.11111h2.66666v6.11111z" data-paper-data="{&quot;index&quot;:null}" fill="#000000"/><path d="M211.22981,206.22158v-6.625h6.25v6.625z" fill="#999999"/><g><path d="M217.05419,200.42886l-0.41667,-3.91667h49.58333v3.91667z" fill="#ffcc99"/><path d="M214.3786,199.95966v-2.85715h2.57142v2.85715z" fill="#000000"/><path d="M213.30419,195.84558v-5.08333h2.58333l-1,5.91667z" fill="#ffcc99"/><path d="M214.38751,197.42886l0.16667,-6.75h54.33333v6.75z" fill="#ffcc99"/><path d="M216.6643,163.95953l0.25,-10.28571h49.17857l0.57143,10.28571z" fill="#ffcc99"/><path d="M214.23572,163.67381v-6.85714h54.57143v6.85714z" fill="#ffcc99"/><path d="M212.80716,191.53103v-33.57143h56.71429v33.57143z" fill="#ffcc99"/><path d="M211.52145,196.95966v-39.71428h2.71428v39.71428z" fill="#000000"/><path d="M217.00954,203.38821v-3.28571h49.22619v3.28571z" fill="#000000"/><path d="M266.09288,200.10249v-2.85715h2.71428v2.85715z" fill="#000000"/><path d="M268.80715,197.24538v-39.85715h2.71429v39.85715z" fill="#000000"/><path d="M266.09288,157.24525v-2.71429h2.57143v2.71429z" fill="#000000"/><path d="M216.66431,154.24525v-2.85714h49.57143v2.85714z" fill="#000000"/><path d="M214.23573,157.24525v-2.57143h2.71428v2.57143z" fill="#000000"/><g fill="#ff99ff"><path d="M216.85002,191.8575v-28.88888h49v28.88888z"/><path d="M219.85002,195.07973v-34.99999h43.11111v34.99999z"/><path d="M219.85002,195.07973v-34.99999h43.11111v34.99999z"/><path d="M222.73891,197.07973v-40.44444h37.22222v40.44444z"/></g><g fill="#ff3399"><path d="M222.78668,166.11783v-3.22222h3.11111v3.22222z"/><path d="M237.00891,163.00671v-3.22222h3.11111v3.22222z"/><path d="M245.67556,163.22895v-3.22222h3.11111v3.22222z"/><path d="M257.0089,169.11788v-3.22222h3.11111v3.22222z"/><path d="M234.34224,174.45124v-3.22222h3.11111v3.22222z"/><path d="M237.12002,183.229v-3.22222h3.11111v3.22222z"/><path d="M225.45335,179.78452v-3.22222h3.11111v3.22222z"/><path d="M219.89779,186.229v-3.22222h3.11111v3.22222z"/><path d="M231.45335,191.45124v-3.22222h3.11111v3.22222z"/><path d="M223.23113,194.56236v-3.22222h3.11111v3.22222z"/></g></g><path d="M252.33718,200.29187v-4.34127h28.92857v4.34127z" fill="#999999"/><path d="M249.83718,197.37917v-2.71429h35.5v2.71429z" fill="#999999"/><path d="M278.55146,172.87917v-4.35714h5.71429v4.35714z" fill="#999999"/><path d="M275.62287,176.80764v-5.78571h8.71429v5.78571z" fill="#999999"/><path d="M272.83717,179.1649v-5.07143h11.78571v5.07143z" fill="#999999"/><path d="M257.98009,182.1649v-6.21429h29.25714v6.21429z" fill="#999999"/><path d="M256.1229,183.09337v-9.5h5.28571v9.5z" fill="#999999"/><path d="M254.33718,183.6649v-13.35714h4.28571v13.35714z" fill="#999999"/><path d="M250.40863,185.09337v-17.14286h5.21429v17.14286z" fill="#999999"/><path d="M246.83718,194.09337l0.07143,-0.57143h2.21429v1.42857l-1.09002,-0.35519z" fill="#999999"/><path d="M247.33718,195.45055l-0.19832,-1.92571l0.69832,-0.86001h39.42857v2.85714z" fill="#999999"/><path d="M246.14432,194.04348v-14.06667h42.6v14.06667z" fill="#999999"/><path d="M244.35097,194.70474v-14.71659h2.91418v14.71659z" fill="#000000"/><path d="M247.26519,180.13384v-11.6567h3.2056v11.6567z" fill="#000000"/><path d="M250.32509,168.47722v-2.47705h5.53694v2.47705z" fill="#000000"/><path d="M255.57061,171.32562v-3.13987h3.05798v3.13987z" fill="#000000"/><path d="M258.63044,174.61674v-3.37117h2.96663v3.37117z" fill="#000000"/><path d="M261.10747,177.07394v-2.76847h11.94813v2.76847z" fill="#000000"/><path d="M272.76417,174.45118v-3.20559h2.98276v3.20559z" fill="#000000"/><path d="M275.62404,171.24559v-2.76847h2.96847v2.76847z" fill="#000000"/><path d="M278.59252,168.76858v-2.76847h5.82835v2.76847z" fill="#000000"/><path d="M284.12949,180.13384v-11.94812h3.32656v11.94812z" fill="#000000"/><path d="M287.33507,194.55906v-14.8623h2.91418v14.8623z" fill="#000000"/><path d="M284.27518,197.47328v-3.20559h3.2056v3.20559z" fill="#000000"/><path d="M247.28552,197.54099v-3h2.875v3z" fill="#000000"/><path d="M250.16052,200.04099v-2.875h2.5v2.875z" fill="#000000"/><path d="M280.73004,200.34337v-3.2h3.4v3.2z" fill="#000000"/><path d="M252.73009,203.14341v-3.2h28v3.2z" fill="#000000"/><path d="M255.69436,188.59337v-5.57143h5.5v5.57143z" fill="#000000"/><path d="M275.62287,188.59337v-5.57143h5.5v5.57143z" fill="#000000"/><path d="M255.69436,186.30764v-3.28571h3.07143v3.28571z" fill="#ffffff"/><path d="M275.62287,186.30764v-3.28571h3.07143v3.28571z" fill="#ffffff"/><path d="M258.6229,196.95055v-5.64286h2.5v5.64286z" fill="#000000"/><path d="M267.4086,196.95055v-5.64286h2.5v5.64286z" fill="#000000"/><path d="M275.98004,196.95055v-5.64286h2.5v5.64286z" fill="#000000"/><path d="M258.6229,197.1649v-2.64286h20.07143v2.64286z" fill="#000000"/><path d="M250.22406,194.67475v-6.2h5.4v6.2z" fill="#ff9999"/><path d="M281.42403,194.67475v-6.2h5.86667v6.2z" fill="#ff9999"/><path d="M270.02403,188.47473v-2.53333h2.66666v2.53333z" fill="#000000"/><path d="M208.47982,208.72158v-8.875h3v8.875z" fill="#000000"/><path d="M208.60482,208.72158v-3h8.625v3z" fill="#000000"/><path d="M217.10482,205.72158v-5.875h2.75v5.875z" fill="#000000"/><path d="M211.35481,200.34658v-2.75h5.75v2.75z" fill="#000000"/><path d="M211.35481,199.47158v-3.75h2.75v3.75z" fill="#000000"/></g></g></svg>